<?xml version="1.0"?>
<svg xmlns="http://www.w3.org/2000/svg" xmlns:xlink="http://www.w3.org/1999/xlink" xmlns:svgjs="http://svgjs.com/svgjs" version="1.1" width="512" height="512" x="0" y="0" viewBox="0 0 128 128" style="enable-background:new 0 0 512 512" xml:space="preserve" class=""><g><g xmlns="http://www.w3.org/2000/svg" id="Layer_2" data-name="Layer 2"><path d="m3.337 59.481 2.868-3.581a7.228 7.228 0 0 0 1.3-6.543l-1.28-4.39a7.229 7.229 0 0 1 3.463-8.367l4.009-2.2a7.229 7.229 0 0 0 3.712-5.548l.5-4.555a7.229 7.229 0 0 1 6.394-6.394l4.554-.5a7.229 7.229 0 0 0 5.55-3.703l2.2-4.009a7.229 7.229 0 0 1 8.364-3.466l4.39 1.28a7.228 7.228 0 0 0 6.543-1.3l3.581-2.868a7.227 7.227 0 0 1 9.038 0l3.577 2.868a7.231 7.231 0 0 0 6.543 1.3l4.39-1.281a7.229 7.229 0 0 1 8.367 3.464l2.2 4.009a7.229 7.229 0 0 0 5.548 3.712l4.555.5a7.229 7.229 0 0 1 6.394 6.394l.5 4.554a7.229 7.229 0 0 0 3.712 5.548l4.009 2.2a7.229 7.229 0 0 1 3.466 8.364l-1.28 4.39a7.228 7.228 0 0 0 1.3 6.543l2.868 3.581a7.227 7.227 0 0 1 0 9.038l-2.872 3.579a7.231 7.231 0 0 0 -1.3 6.543l1.281 4.39a7.229 7.229 0 0 1 -3.466 8.364l-4.009 2.2a7.226 7.226 0 0 0 -3.712 5.548l-.5 4.555a7.229 7.229 0 0 1 -6.394 6.394l-4.554.5a7.229 7.229 0 0 0 -5.548 3.712l-2.2 4.009a7.229 7.229 0 0 1 -8.364 3.466l-4.39-1.28a7.228 7.228 0 0 0 -6.543 1.3l-3.581 2.868a7.227 7.227 0 0 1 -9.038 0l-3.582-2.869a7.231 7.231 0 0 0 -6.543-1.3l-4.391 1.281a7.228 7.228 0 0 1 -8.363-3.466l-2.2-4.009a7.229 7.229 0 0 0 -5.548-3.712l-4.555-.5a7.229 7.229 0 0 1 -6.39-6.394l-.5-4.554a7.229 7.229 0 0 0 -3.71-5.553l-4.012-2.193a7.229 7.229 0 0 1 -3.466-8.364l1.28-4.39a7.228 7.228 0 0 0 -1.3-6.543l-2.865-3.584a7.227 7.227 0 0 1 0-9.038z" fill="#ffffff" data-original="#a7adf0" style="" class=""/><circle cx="64" cy="64" fill="#ffffff" r="45.918" data-original="#fff5cc" style="" class=""/><path d="m57.534 86.928-25.848-25.848 7.071-7.071 18.777 18.777 31.715-31.714 7.07 7.071z" fill="#ffb800" data-original="#57a4ff" style="" class=""/><g fill="#231f20"><path d="m57.534 88.679a1.75 1.75 0 0 1 -1.237-.513l-25.848-25.849a1.75 1.75 0 0 1 0-2.474l7.071-7.072a1.8 1.8 0 0 1 2.474 0l17.54 17.541 30.478-30.478a1.75 1.75 0 0 1 1.237-.513 1.75 1.75 0 0 1 1.237.513l7.071 7.071a1.751 1.751 0 0 1 0 2.475l-38.786 38.786a1.75 1.75 0 0 1 -1.237.513zm-23.373-27.599 23.373 23.374 36.311-36.311-4.6-4.6-30.474 30.48a1.748 1.748 0 0 1 -2.474 0l-17.54-17.54z" fill="#ffb800" data-original="#231f20" style="" class=""/><path d="m64 111.668a47.684 47.684 0 0 1 -41.967-70.294 1.75 1.75 0 0 1 3.08 1.664 44.174 44.174 0 1 0 38.887-23.206 43.719 43.719 0 0 0 -20 4.773 1.75 1.75 0 1 1 -1.586-3.119 47.175 47.175 0 0 1 21.586-5.154 47.668 47.668 0 0 1 0 95.336z" fill="#ffb800" data-original="#231f20" style="" class=""/><path d="m30.472 34.376a1.75 1.75 0 0 1 -1.278-2.946c1.078-1.152 2.229-2.265 3.419-3.308a1.75 1.75 0 0 1 2.307 2.633c-1.105.967-2.171 2-3.171 3.067a1.746 1.746 0 0 1 -1.277.554z" fill="#ffb800" data-original="#231f20" style="" class=""/><path d="m64 128.015a8.956 8.956 0 0 1 -5.613-1.986l-3.58-2.868a5.5 5.5 0 0 0 -4.961-.984l-4.389 1.281a8.924 8.924 0 0 1 -10.39-4.306l-2.2-4.008a5.479 5.479 0 0 0 -4.2-2.814l-4.555-.5a8.924 8.924 0 0 1 -7.941-7.941l-.5-4.555a5.482 5.482 0 0 0 -2.815-4.2l-4.007-2.2a9.035 9.035 0 0 1 -4.307-10.391l1.28-4.391a5.483 5.483 0 0 0 -.983-4.959l-2.868-3.58a8.925 8.925 0 0 1 0-11.226l2.868-3.58a5.491 5.491 0 0 0 .984-4.961l-1.281-4.389a8.927 8.927 0 0 1 4.306-10.39l4.008-2.2a5.479 5.479 0 0 0 2.814-4.2l.5-4.555a8.924 8.924 0 0 1 7.941-7.941l4.555-.5a5.482 5.482 0 0 0 4.2-2.815l2.2-4.007a9.033 9.033 0 0 1 10.391-4.307l4.391 1.28a5.5 5.5 0 0 0 4.959-.983l3.58-2.868a8.928 8.928 0 0 1 11.226 0l3.58 2.868a5.491 5.491 0 0 0 4.961.984l4.389-1.281a8.924 8.924 0 0 1 10.39 4.306l2.2 4.008a5.479 5.479 0 0 0 4.2 2.814l4.555.5a8.924 8.924 0 0 1 7.941 7.941l.5 4.555a5.482 5.482 0 0 0 2.815 4.2l4.007 2.2a9.035 9.035 0 0 1 4.306 10.389l-1.28 4.391a5.483 5.483 0 0 0 .983 4.959l2.868 3.58a8.925 8.925 0 0 1 0 11.226l-2.868 3.58a5.491 5.491 0 0 0 -.984 4.961l1.281 4.389a8.927 8.927 0 0 1 -4.306 10.39l-4.008 2.2a1.75 1.75 0 0 1 -1.682-3.07l4.009-2.2a5.447 5.447 0 0 0 2.628-6.339l-1.282-4.389a8.993 8.993 0 0 1 1.612-8.128l2.868-3.58a5.448 5.448 0 0 0 0-6.852l-2.868-3.58a8.988 8.988 0 0 1 -1.611-8.127l1.281-4.39a5.513 5.513 0 0 0 -2.628-6.338l-4.008-2.2a8.984 8.984 0 0 1 -4.611-6.89l-.5-4.556a5.45 5.45 0 0 0 -4.846-4.846l-4.555-.5a8.98 8.98 0 0 1 -6.891-4.61l-2.2-4.009a5.454 5.454 0 0 0 -6.336-2.627l-4.389 1.283a9 9 0 0 1 -8.128-1.612l-3.58-2.871a5.447 5.447 0 0 0 -6.852 0l-3.58 2.868a8.986 8.986 0 0 1 -8.127 1.611l-4.39-1.279a5.516 5.516 0 0 0 -6.338 2.628l-2.2 4.008a8.984 8.984 0 0 1 -6.89 4.611l-4.556.5a5.45 5.45 0 0 0 -4.843 4.853l-.5 4.555a8.98 8.98 0 0 1 -4.61 6.891l-4.009 2.2a5.447 5.447 0 0 0 -2.631 6.331l1.282 4.389a8.993 8.993 0 0 1 -1.612 8.128l-2.87 3.58a5.448 5.448 0 0 0 0 6.852l2.868 3.58a8.988 8.988 0 0 1 1.611 8.127l-1.279 4.39a5.512 5.512 0 0 0 2.628 6.338l4.008 2.2a8.984 8.984 0 0 1 4.611 6.89l.5 4.556a5.45 5.45 0 0 0 4.853 4.843l4.555.5a8.98 8.98 0 0 1 6.891 4.61l2.2 4.009a5.453 5.453 0 0 0 6.339 2.628l4.389-1.282a8.994 8.994 0 0 1 8.128 1.612l3.58 2.868a5.446 5.446 0 0 0 6.852 0l3.58-2.868a8.984 8.984 0 0 1 8.127-1.611l4.39 1.281a5.45 5.45 0 0 0 6.338-2.628l2.2-4.008a8.984 8.984 0 0 1 6.89-4.611l4.556-.5a5.45 5.45 0 0 0 4.846-4.846 1.75 1.75 0 1 1 3.478.383 8.924 8.924 0 0 1 -7.941 7.941l-4.555.5a5.482 5.482 0 0 0 -4.2 2.815l-2.2 4.007a8.926 8.926 0 0 1 -10.389 4.306l-4.391-1.28a5.486 5.486 0 0 0 -4.959.983l-3.58 2.868a8.956 8.956 0 0 1 -5.624 1.988z" fill="#ffb800" data-original="#231f20" style="" class=""/></g></g></g></svg>
